<mxfile host="app.diagrams.net" modified="2024-02-11T17:25:50.765Z" agent="Mozilla/5.0 (Windows NT 10.0; Win64; x64; rv:122.0) Gecko/20100101 Firefox/122.0" etag="iTL6F7Bzwg2ZcE_xmflq" version="23.1.2" type="device">
  <diagram name="Pagina-1" id="xI5nvFBQ5HxxW6P7Flix">
    <mxGraphModel dx="806" dy="1614" grid="1" gridSize="10" guides="1" tooltips="1" connect="1" arrows="1" fold="1" page="1" pageScale="1" pageWidth="827" pageHeight="1169" math="0" shadow="0">
      <root>
        <mxCell id="0" />
        <mxCell id="1" parent="0" />
        <mxCell id="D80vIOVLJQnWsdwlMCNh-1" value="" style="swimlane;startSize=0;" parent="1" vertex="1">
          <mxGeometry x="40" y="-10" width="540" height="420" as="geometry" />
        </mxCell>
        <mxCell id="PHsdMOvUVNE0_T_PcIVp-22" value="" style="endArrow=none;html=1;rounded=0;strokeWidth=4;fillColor=#e1d5e7;strokeColor=#9673a6;" parent="1" edge="1">
          <mxGeometry width="50" height="50" relative="1" as="geometry">
            <mxPoint x="155" y="320" as="sourcePoint" />
            <mxPoint x="518" y="320" as="targetPoint" />
          </mxGeometry>
        </mxCell>
        <mxCell id="PHsdMOvUVNE0_T_PcIVp-2" value="&lt;div&gt;CPU&lt;/div&gt;&lt;div&gt;(MCU)&lt;br&gt;&lt;/div&gt;" style="rounded=0;whiteSpace=wrap;html=1;fillColor=#e51400;fontColor=#ffffff;strokeColor=#B20000;gradientColor=#8A8A8A;fontStyle=1;strokeWidth=3;" parent="1" vertex="1">
          <mxGeometry x="90" y="120" width="90" height="160" as="geometry" />
        </mxCell>
        <mxCell id="PHsdMOvUVNE0_T_PcIVp-3" value="&lt;div&gt;RAM&lt;/div&gt;&lt;div&gt;(32KB)&lt;br&gt;&lt;/div&gt;" style="rounded=0;whiteSpace=wrap;html=1;fillColor=#6d8764;fontColor=#ffffff;strokeColor=#3A5431;gradientColor=#8A8A8A;fontStyle=1;strokeWidth=3;" parent="1" vertex="1">
          <mxGeometry x="330" y="120" width="90" height="160" as="geometry" />
        </mxCell>
        <mxCell id="PHsdMOvUVNE0_T_PcIVp-4" value="&lt;div&gt;ROM&lt;/div&gt;&lt;div&gt;(24KB)&lt;br&gt;&lt;/div&gt;" style="rounded=0;whiteSpace=wrap;html=1;fillColor=#e3c800;fontColor=#FFFFFF;strokeColor=#B09500;gradientColor=#8A8A8A;fontStyle=1;strokeWidth=3;" parent="1" vertex="1">
          <mxGeometry x="210" y="120" width="90" height="160" as="geometry" />
        </mxCell>
        <mxCell id="PHsdMOvUVNE0_T_PcIVp-5" value="&lt;div&gt;I/O&lt;/div&gt;&lt;div&gt;(KB)&lt;br&gt;&lt;/div&gt;" style="rounded=0;whiteSpace=wrap;html=1;fillColor=#a0522d;fontColor=#ffffff;strokeColor=#6D1F00;gradientColor=#8A8A8A;fontStyle=1;strokeWidth=3;" parent="1" vertex="1">
          <mxGeometry x="450" y="120" width="80" height="160" as="geometry" />
        </mxCell>
        <mxCell id="PHsdMOvUVNE0_T_PcIVp-7" value="DATA BUS (8-bit)" style="rounded=0;whiteSpace=wrap;html=1;fillColor=#fff2cc;strokeColor=#d6b656;strokeWidth=2;" parent="1" vertex="1">
          <mxGeometry x="80" y="8" width="460" height="30" as="geometry" />
        </mxCell>
        <mxCell id="PHsdMOvUVNE0_T_PcIVp-11" value="" style="shape=flexArrow;endArrow=classic;startArrow=classic;html=1;rounded=0;exitX=0.5;exitY=0;exitDx=0;exitDy=0;entryX=0.12;entryY=1.067;entryDx=0;entryDy=0;entryPerimeter=0;fillColor=#fff2cc;strokeColor=#d6b656;strokeWidth=2;" parent="1" source="PHsdMOvUVNE0_T_PcIVp-2" target="PHsdMOvUVNE0_T_PcIVp-7" edge="1">
          <mxGeometry width="100" height="100" relative="1" as="geometry">
            <mxPoint x="360" y="260" as="sourcePoint" />
            <mxPoint x="460" y="160" as="targetPoint" />
          </mxGeometry>
        </mxCell>
        <mxCell id="PHsdMOvUVNE0_T_PcIVp-12" value="" style="shape=flexArrow;endArrow=classic;startArrow=classic;html=1;rounded=0;exitX=0.5;exitY=0;exitDx=0;exitDy=0;entryX=0.091;entryY=1.033;entryDx=0;entryDy=0;entryPerimeter=0;fillColor=#fff2cc;strokeColor=#d6b656;strokeWidth=2;" parent="1" edge="1">
          <mxGeometry width="100" height="100" relative="1" as="geometry">
            <mxPoint x="375.5" y="119" as="sourcePoint" />
            <mxPoint x="375.5" y="40" as="targetPoint" />
          </mxGeometry>
        </mxCell>
        <mxCell id="PHsdMOvUVNE0_T_PcIVp-13" value="" style="shape=flexArrow;endArrow=classic;startArrow=classic;html=1;rounded=0;exitX=0.5;exitY=0;exitDx=0;exitDy=0;entryX=0.091;entryY=1.033;entryDx=0;entryDy=0;entryPerimeter=0;fillColor=#fff2cc;strokeColor=#d6b656;strokeWidth=2;" parent="1" edge="1">
          <mxGeometry width="100" height="100" relative="1" as="geometry">
            <mxPoint x="490.5" y="119" as="sourcePoint" />
            <mxPoint x="490.5" y="40" as="targetPoint" />
          </mxGeometry>
        </mxCell>
        <mxCell id="PHsdMOvUVNE0_T_PcIVp-15" value="" style="shape=flexArrow;endArrow=classic;html=1;rounded=0;exitX=0.5;exitY=1;exitDx=0;exitDy=0;entryX=0.12;entryY=-0.067;entryDx=0;entryDy=0;entryPerimeter=0;fillColor=#f5f5f5;strokeColor=#666666;strokeWidth=2;" parent="1" source="PHsdMOvUVNE0_T_PcIVp-2" target="PHsdMOvUVNE0_T_PcIVp-6" edge="1">
          <mxGeometry width="50" height="50" relative="1" as="geometry">
            <mxPoint x="390" y="230" as="sourcePoint" />
            <mxPoint x="440" y="180" as="targetPoint" />
          </mxGeometry>
        </mxCell>
        <mxCell id="PHsdMOvUVNE0_T_PcIVp-16" value="" style="shape=flexArrow;endArrow=classic;html=1;rounded=0;exitX=0.38;exitY=-0.067;exitDx=0;exitDy=0;exitPerimeter=0;entryX=0.5;entryY=1;entryDx=0;entryDy=0;fillColor=#f5f5f5;strokeColor=#666666;strokeWidth=2;" parent="1" source="PHsdMOvUVNE0_T_PcIVp-6" target="PHsdMOvUVNE0_T_PcIVp-4" edge="1">
          <mxGeometry width="50" height="50" relative="1" as="geometry">
            <mxPoint x="390" y="230" as="sourcePoint" />
            <mxPoint x="440" y="180" as="targetPoint" />
          </mxGeometry>
        </mxCell>
        <mxCell id="PHsdMOvUVNE0_T_PcIVp-17" value="" style="shape=flexArrow;endArrow=classic;html=1;rounded=0;exitX=0.38;exitY=-0.067;exitDx=0;exitDy=0;exitPerimeter=0;entryX=0.5;entryY=1;entryDx=0;entryDy=0;fillColor=#f5f5f5;strokeColor=#666666;strokeWidth=2;" parent="1" edge="1">
          <mxGeometry width="50" height="50" relative="1" as="geometry">
            <mxPoint x="374.5" y="358" as="sourcePoint" />
            <mxPoint x="374.5" y="280" as="targetPoint" />
          </mxGeometry>
        </mxCell>
        <mxCell id="PHsdMOvUVNE0_T_PcIVp-6" value="ADDRESS BUS (16-bit)" style="rounded=0;whiteSpace=wrap;html=1;fillColor=#f5f5f5;fontColor=#333333;strokeColor=#666666;strokeWidth=2;" parent="1" vertex="1">
          <mxGeometry x="80" y="360" width="460" height="30" as="geometry" />
        </mxCell>
        <mxCell id="PHsdMOvUVNE0_T_PcIVp-20" value="" style="shape=flexArrow;endArrow=classic;html=1;rounded=0;exitX=0.38;exitY=-0.067;exitDx=0;exitDy=0;exitPerimeter=0;entryX=0.5;entryY=1;entryDx=0;entryDy=0;fillColor=#f5f5f5;strokeColor=#666666;strokeWidth=2;" parent="1" edge="1">
          <mxGeometry width="50" height="50" relative="1" as="geometry">
            <mxPoint x="489.5" y="358" as="sourcePoint" />
            <mxPoint x="489.5" y="280" as="targetPoint" />
          </mxGeometry>
        </mxCell>
        <mxCell id="PHsdMOvUVNE0_T_PcIVp-26" value="" style="endArrow=classic;html=1;rounded=0;strokeWidth=4;fillColor=#e1d5e7;strokeColor=#9673a6;" parent="1" edge="1">
          <mxGeometry width="50" height="50" relative="1" as="geometry">
            <mxPoint x="157" y="320" as="sourcePoint" />
            <mxPoint x="157" y="280" as="targetPoint" />
          </mxGeometry>
        </mxCell>
        <mxCell id="PHsdMOvUVNE0_T_PcIVp-27" value="" style="endArrow=classic;html=1;rounded=0;strokeWidth=4;fillColor=#e1d5e7;strokeColor=#9673a6;" parent="1" edge="1">
          <mxGeometry width="50" height="50" relative="1" as="geometry">
            <mxPoint x="280" y="320" as="sourcePoint" />
            <mxPoint x="280" y="280" as="targetPoint" />
          </mxGeometry>
        </mxCell>
        <mxCell id="PHsdMOvUVNE0_T_PcIVp-28" value="" style="endArrow=classic;html=1;rounded=0;strokeWidth=4;fillColor=#e1d5e7;strokeColor=#9673a6;" parent="1" edge="1">
          <mxGeometry width="50" height="50" relative="1" as="geometry">
            <mxPoint x="400" y="320" as="sourcePoint" />
            <mxPoint x="400" y="280" as="targetPoint" />
          </mxGeometry>
        </mxCell>
        <mxCell id="PHsdMOvUVNE0_T_PcIVp-30" value="" style="endArrow=classic;html=1;rounded=0;strokeWidth=4;fillColor=#e1d5e7;strokeColor=#9673a6;" parent="1" edge="1">
          <mxGeometry width="50" height="50" relative="1" as="geometry">
            <mxPoint x="516" y="320" as="sourcePoint" />
            <mxPoint x="516" y="280" as="targetPoint" />
          </mxGeometry>
        </mxCell>
        <mxCell id="PHsdMOvUVNE0_T_PcIVp-31" value="&lt;font style=&quot;font-size: 10px;&quot;&gt;CONTROL BUS&lt;/font&gt;" style="text;html=1;align=center;verticalAlign=middle;resizable=0;points=[];autosize=1;strokeWidth=4;" parent="1" vertex="1">
          <mxGeometry x="151" y="296" width="100" height="30" as="geometry" />
        </mxCell>
        <mxCell id="ujK6LKvHTskiTB-m4zmH-1" value="" style="shape=flexArrow;endArrow=classic;html=1;rounded=0;exitX=0.5;exitY=0;exitDx=0;exitDy=0;fillColor=#fff2cc;strokeColor=#d6b656;strokeWidth=2;" edge="1" parent="1" source="PHsdMOvUVNE0_T_PcIVp-4">
          <mxGeometry width="50" height="50" relative="1" as="geometry">
            <mxPoint x="390" y="200" as="sourcePoint" />
            <mxPoint x="255" y="40" as="targetPoint" />
          </mxGeometry>
        </mxCell>
      </root>
    </mxGraphModel>
  </diagram>
</mxfile>
